<svg xmlns="http://www.w3.org/2000/svg" viewBox="0 0 111.57 111.57"><defs><style>.cls-1{fill:#fff;fill-rule:evenodd;}</style></defs><title>fb</title><g id="Слой_2" data-name="Слой 2"><g id="Layer_1" data-name="Layer 1"><path class="cls-1" d="M37.76,44.54H44.9v-6.6C44.9,21,56.31,21.8,56.31,21.8h13.5V33.17H61.63c-5.35,0-5.84,3.85-5.84,6.11v5.26H69L67,55.79H55.79V90.05H44.9V55.79H37.76Z"/><path class="cls-1" d="M55.79,0A55.79,55.79,0,1,1,16.34,16.34,55.58,55.58,0,0,1,55.79,0Zm37.3,18.48a52.74,52.74,0,1,0,15.46,37.31A52.56,52.56,0,0,0,93.09,18.48Z"/></g></g></svg>