<svg xmlns="http://www.w3.org/2000/svg" viewBox="0 0 111.57 111.57"><defs><style>.cls-1{fill:#fff;fill-rule:evenodd;}</style></defs><title>ok</title><g id="Слой_2" data-name="Слой 2"><g id="Layer_1" data-name="Layer 1"><path class="cls-1" d="M36.71,64.69A4.15,4.15,0,0,1,42,58.28s12,10.16,27.61-.13a4.15,4.15,0,0,1,4.55,6.93C53.4,78.76,36.76,64.73,36.71,64.69Z"/><path class="cls-1" d="M52.39,69.72A4.15,4.15,0,0,1,58,75.79L44.48,88.43a4.15,4.15,0,1,1-5.66-6.07Z"/><path class="cls-1" d="M52.39,75.79A4.15,4.15,0,1,1,58,69.72L71.6,82.36A4.15,4.15,0,0,1,66,88.43Z"/><path class="cls-1" d="M55.55,21.33a17.6,17.6,0,1,1-12.43,5.15,17.56,17.56,0,0,1,12.43-5.15Zm7,10.56a9.93,9.93,0,1,0,2.91,7A9.88,9.88,0,0,0,62.57,31.89Z"/><path class="cls-1" d="M55.79,0A55.79,55.79,0,1,1,16.34,16.34,55.58,55.58,0,0,1,55.79,0Zm37.3,18.48a52.74,52.74,0,1,0,15.46,37.31A52.56,52.56,0,0,0,93.09,18.48Z"/></g></g></svg>