<svg xmlns="http://www.w3.org/2000/svg" viewBox="0 0 111.57 111.57"><defs><style>.cls-1{fill:#fff;fill-rule:evenodd;}</style></defs><title>tw</title><g id="Слой_2" data-name="Слой 2"><g id="Layer_1" data-name="Layer 1"><path class="cls-1" d="M27.92,29.49C34.52,38.32,44,44.15,57.57,45.82c0,0-1.73-18.34,13.33-18.38,5.26,0,9.09,1.85,11.63,4.92a26,26,0,0,0,8.17-3.5,13.28,13.28,0,0,1-5.36,7.83,26.63,26.63,0,0,0,7.27-2.37,13.37,13.37,0,0,1-6.42,7.28c1.19,9.69-3,22.45-11.38,31.95C64,85.88,44.31,93.44,23.73,80.29A27.49,27.49,0,0,0,44.56,73.9c-7.07-.52-11.39-4.13-13.41-10.33a11.94,11.94,0,0,0,6.15-.47c-7.67-2.48-10.83-7.88-11.36-15A11.32,11.32,0,0,0,32.33,50C26,43.93,24.81,37,27.92,29.49Z"/><path class="cls-1" d="M55.79,0A55.79,55.79,0,1,1,16.34,16.34,55.58,55.58,0,0,1,55.79,0Zm37.3,18.48a52.74,52.74,0,1,0,15.46,37.31A52.56,52.56,0,0,0,93.09,18.48Z"/></g></g></svg>