<svg xmlns="http://www.w3.org/2000/svg" viewBox="0 0 111.57 111.57"><defs><style>.cls-1{fill:#fff;fill-rule:evenodd;}</style></defs><title>vk</title><g id="Слой_2" data-name="Слой 2"><g id="Layer_1" data-name="Layer 1"><path class="cls-1" d="M55.79,0A55.79,55.79,0,1,1,16.34,16.34,55.58,55.58,0,0,1,55.79,0Zm37.3,18.48a52.74,52.74,0,1,0,15.46,37.31A52.56,52.56,0,0,0,93.09,18.48Z"/><path class="cls-1" d="M19.16,38.76h9c3.33,0,3.27.54,4.29,2.3,3.67,6.36,8.77,15.72,12.67,15.12V43.7c0-4.88-3.22-2.69-3.4-4.45-.09-.9,1.54-2.38,4.55-2.38H56.59c2.65,0,2.92,1.46,2.92,3,0,5.58-.07,10.77-.1,16.35,5.27-.46,9.14-8.35,12.36-14.46,1.78-3.37,2.07-3,4.7-3h10c2.24,0,2.71.9,1.28,3.17C84.54,47,81.11,52.5,77.76,57.61c-1.09,1.66-1.76,1.91.2,4.24,3.76,4.46,7.73,8.32,11.46,12.8.84,1,.56,2.51-1.83,2.51H74.89c-1.7,0-2.35,0-4.39-2.21-3.19-3.38-6.16-6.74-10.65-7.19v7.07c0,1.34-.56,2.31-2.6,2.31H48.89c-11.88,0-25.3-23.87-31.23-35.58C16.49,39.27,17.56,38.76,19.16,38.76Z"/></g></g></svg>