<svg width="153" height="28" viewBox="0 0 153 28" fill="none" xmlns="http://www.w3.org/2000/svg">
<path fill-rule="evenodd" clip-rule="evenodd" d="M130.829 12.2743H128.301C128.112 12.2743 127.946 12.4343 127.946 12.6172V14.9943C127.946 15.1772 128.112 15.3372 128.301 15.3372H130.829C131.018 15.3372 131.184 15.1772 131.184 14.9943V12.6172C131.184 12.4343 131.018 12.2743 130.829 12.2743Z" fill="#043E44"/>
<path fill-rule="evenodd" clip-rule="evenodd" d="M6.87578 3.83987C6.66312 3.81701 6.4741 3.79415 6.28507 3.79415C5.08004 3.86273 4.01678 4.22844 3.21342 4.70845V4.34273C3.21342 4.20558 3.28431 3.95416 2.92988 3.95416H0.99238C0.448934 3.99987 0 4.38845 0 4.86845V16.6629C0 18.3772 1.25229 19.4286 2.78812 19.4286H2.92988C3.09528 19.4286 3.26068 19.3601 3.26068 19.0858V14.8343C3.92226 15.2229 4.77288 15.5429 5.8834 15.5429C6.28507 15.5429 6.66312 15.52 7.01754 15.4514C9.04956 15.1543 10.8926 13.3943 10.8926 9.55423C10.8926 6.35419 9.47487 4.02273 6.87578 3.83987ZM5.22181 13.28C3.99315 13.28 3.23705 12.3428 3.23705 10.7657V8.34278C3.23705 6.99419 4.01678 6.01133 5.22181 6.01133C6.52135 6.01133 7.32471 7.03991 7.32471 9.59994C7.32471 11.4971 6.8994 13.28 5.22181 13.28Z" fill="#043E44"/>
<path fill-rule="evenodd" clip-rule="evenodd" d="M111.572 5.46283C110.226 4.18281 108.69 3.93138 107.556 3.93138C106.421 3.93138 104.862 4.18281 103.539 5.46283C102.995 5.98855 101.814 7.38286 101.814 9.73717C101.814 11.5429 102.546 13.1429 103.633 14.1487C104.437 14.8801 105.736 15.5887 107.579 15.5887C109.422 15.5887 110.722 14.8801 111.525 14.1487C112.612 13.1429 113.344 11.5201 113.344 9.73717C113.297 7.38286 112.116 6.01141 111.572 5.46283ZM109.233 12.4572C108.808 13.1886 108.17 13.3944 107.556 13.3944C106.941 13.3944 106.303 13.1658 105.878 12.4572C105.594 12.0001 105.358 11.2686 105.358 9.76003C105.358 8.93716 105.405 7.84001 105.949 7.04C106.327 6.4457 106.847 6.17141 107.556 6.17141C108.288 6.17141 108.784 6.4457 109.162 7.04C109.706 7.86286 109.753 8.93716 109.753 9.76003C109.753 11.2686 109.493 11.9772 109.233 12.4572Z" fill="#043E44"/>
<path fill-rule="evenodd" clip-rule="evenodd" d="M22.5415 5.82856C21.7618 4.91426 20.3914 3.95425 18.1703 3.95425C17.1543 3.95425 15.6894 4.11426 14.3426 5.21141C13.4211 5.96571 12.2869 7.33715 12.2869 9.80575C12.2869 11.9086 13.1611 13.2801 13.9409 14.0572C14.8151 14.903 16.2092 15.6115 18.1231 15.6115C19.6589 15.6115 20.9112 15.223 21.8327 14.6058C22.4706 14.1715 23.2267 13.4401 23.6521 12.2515C23.6757 12.1601 23.7229 11.9544 23.463 11.9544H20.7458C20.5804 11.9544 20.415 12.1372 20.3677 12.2286C20.2732 12.4572 20.1315 12.6401 19.9897 12.7772C19.6825 13.0744 19.1154 13.4172 18.2885 13.4172C17.2016 13.4172 16.5636 12.8686 16.2092 12.2286C15.9256 11.7486 15.8075 11.0629 15.8311 10.4458H23.4394C23.7466 10.4 23.8411 10.24 23.8647 9.82861C23.8647 9.82861 23.8647 9.7829 23.8647 9.73718C23.8647 7.93144 23.2504 6.62857 22.5415 5.82856ZM20.415 8.57145H15.8784C15.8784 7.88573 16.1147 7.24572 16.5163 6.85714C16.9416 6.44571 17.5324 6.14856 18.2412 6.14856C19.1391 6.14856 19.6589 6.56 19.9661 6.99429C20.2732 7.42858 20.4386 8.04573 20.415 8.57145Z" fill="#043E44"/>
<path fill-rule="evenodd" clip-rule="evenodd" d="M77.6896 5.82856C76.9098 4.91426 75.5394 3.95425 73.3184 3.95425C72.3024 3.95425 70.8374 4.11426 69.4907 5.21141C68.5692 5.96571 67.435 7.33715 67.435 9.80575C67.435 11.9086 68.3093 13.2801 69.089 14.0572C69.9632 14.903 71.3573 15.6115 73.2711 15.6115C74.807 15.6115 76.0592 15.223 76.9807 14.6058C77.6187 14.1715 78.3748 13.4401 78.8001 12.2515C78.8237 12.1601 78.871 11.9544 78.6111 11.9544H75.8938C75.7284 11.9544 75.563 12.1372 75.5158 12.2286C75.4213 12.4572 75.2795 12.6401 75.1377 12.7772C74.8306 13.0744 74.2635 13.4172 73.4365 13.4172C72.3496 13.4172 71.7117 12.8686 71.3573 12.2286C71.0737 11.7486 70.9556 11.0629 70.9792 10.4458H78.5874C78.8946 10.4 78.9891 10.24 79.0127 9.82861C79.0127 9.82861 79.0127 9.7829 79.0127 9.73718C78.9891 7.93144 78.3748 6.62857 77.6896 5.82856ZM75.5394 8.57145H71.0028C71.0028 7.88573 71.2391 7.24572 71.6408 6.85714C72.0661 6.44571 72.6568 6.14856 73.3656 6.14856C74.2635 6.14856 74.7833 6.56 75.0905 6.99429C75.3976 7.42858 75.563 8.04573 75.5394 8.57145Z" fill="#043E44"/>
<path fill-rule="evenodd" clip-rule="evenodd" d="M56.2349 11.6116C55.5025 10.1487 54.8645 9.28012 54.2502 9.18869C54.2502 9.18869 55.0772 9.14297 55.6442 7.6801C55.8333 7.15438 56.3767 5.96579 56.7311 5.23435C56.8729 4.96006 57.0855 4.66292 57.3218 4.38863C57.3455 4.34292 57.3691 4.2972 57.3691 4.25148C57.3691 4.11434 57.2746 4.02291 57.1328 4.00005H54.77C54.1084 4.02291 53.8012 4.50292 53.5886 4.98292C53.2342 5.78293 53.0924 6.26294 52.5962 7.33724C52.3599 7.86296 51.911 8.41154 50.9422 8.41154H50.257V0.411438C50.257 0.274293 50.3279 0 49.9735 0H47.8233C47.2563 0.0457149 46.8309 0.434291 46.8073 0.914297V13.5087C46.8073 13.7602 46.831 14.0802 46.9491 14.4002C47.1854 14.903 47.6579 15.3145 48.2486 15.3145H49.7372C50.1153 15.3145 50.2334 15.1316 50.2334 14.8345V10.3087H50.8241C52.1236 10.3087 52.6907 11.7487 53.2578 12.7545C53.7776 13.6916 54.6519 15.3602 56.2349 15.2688H58.1016C58.2197 15.2688 58.3378 15.1545 58.3378 15.0402C58.3378 14.9945 58.3142 14.9488 58.3142 14.9259C57.8416 14.263 56.8493 12.7087 56.2349 11.6116Z" fill="#043E44"/>
<path fill-rule="evenodd" clip-rule="evenodd" d="M124.165 11.6116C123.433 10.1487 122.795 9.28012 122.18 9.18869C122.18 9.18869 123.007 9.14297 123.575 7.6801C123.764 7.15438 124.307 5.96579 124.661 5.23435C124.803 4.96006 125.016 4.66292 125.252 4.38863C125.276 4.34292 125.299 4.2972 125.299 4.25148C125.299 4.11434 125.205 4.02291 125.063 4.00005H122.7C122.039 4.02291 121.732 4.50292 121.519 4.98292C121.164 5.78293 121.023 6.26294 120.527 7.33724C120.29 7.86296 119.841 8.41154 118.873 8.41154H118.187V0.411438C118.187 0.274293 118.258 0 117.904 0H115.801C115.234 0.0457149 114.809 0.434291 114.785 0.914297V13.5087C114.785 13.7602 114.809 14.0802 114.927 14.4002C115.163 14.903 115.612 15.3145 116.226 15.3145H117.715C118.093 15.3145 118.211 15.1316 118.211 14.8345V10.3087H118.802C120.101 10.3087 120.668 11.7487 121.235 12.7545C121.755 13.6916 122.629 15.3602 124.213 15.2688H126.079C126.197 15.2688 126.315 15.1545 126.315 15.0402C126.315 14.9945 126.292 14.9488 126.292 14.9259C125.772 14.263 124.78 12.7087 124.165 11.6116Z" fill="#043E44"/>
<path fill-rule="evenodd" clip-rule="evenodd" d="M86.8334 8.36574L84.9195 8.1143C84.3052 8.02287 83.4546 7.84001 83.4546 7.08572C83.4546 6.81143 83.5964 6.42285 84.0689 6.19428C84.2816 6.07999 84.636 5.96571 85.3212 5.96571C85.841 5.96571 86.4081 6.01142 86.9043 6.4C87.1642 6.58285 87.4005 6.88 87.5659 7.20001C87.6131 7.29143 87.7076 7.33715 87.8258 7.31429L90.0704 6.85714C90.2122 6.83429 90.3067 6.67429 90.2358 6.56C89.905 5.8057 89.4088 5.25713 88.9835 4.93712C87.8258 4.06854 86.5262 3.95425 85.4393 3.95425C84.3525 3.95425 82.982 4.0914 81.9188 4.75426C80.95 5.39427 80.3593 6.42286 80.3593 7.49716C80.3593 8.57145 80.8555 9.34861 81.4462 9.87433C82.2496 10.56 83.4073 10.8115 84.3997 10.9715L86.0537 11.2229C86.7389 11.3372 87.6604 11.4743 87.6604 12.3429C87.6604 12.5715 87.6131 12.9372 87.1878 13.1887C86.7625 13.4401 85.9119 13.5315 85.463 13.5315C84.7305 13.5315 83.9508 13.3258 83.4546 12.9601C83.2183 12.7772 82.9348 12.4801 82.7694 12.0458C82.7221 11.9544 82.6276 11.8858 82.5095 11.8858L80.1231 12.2286C79.9813 12.2515 79.8868 12.4115 79.934 12.5486C80.1467 13.0515 80.5956 13.8515 81.4935 14.5144C82.7694 15.383 84.3288 15.543 85.4157 15.543C86.7861 15.543 88.2747 15.2915 89.3143 14.6058C90.0232 14.1258 90.8265 13.2572 90.8265 11.8172C90.8265 10.7658 90.4012 10.0343 89.9287 9.57718C89.0781 8.77717 87.7785 8.50288 86.8334 8.36574Z" fill="#043E44"/>
<path fill-rule="evenodd" clip-rule="evenodd" d="M152.023 3.95425H149.211C149.045 3.95425 148.904 4.0914 148.904 4.2514V10.4229C148.904 10.9943 148.833 11.7029 148.384 12.2744C147.982 12.7772 147.391 13.0287 146.824 13.0287C146.328 13.0287 145.903 12.8458 145.643 12.5258C145.241 12.0229 145.241 11.2229 145.241 10.8115V4.2514C145.241 4.0914 145.1 3.95425 144.934 3.95425H143.918C142.737 3.95425 141.792 4.86855 141.792 6.01142V11.3601C141.792 12.5487 141.957 13.8515 143.115 14.7887C143.705 15.2915 144.509 15.5887 145.572 15.5887C147.297 15.5887 148.502 14.6744 149.116 13.3258H149.164C149.164 14.4458 150.109 15.3601 151.266 15.3601H152.046C152.212 15.3601 152.353 15.223 152.353 15.063V4.2514C152.33 4.0914 152.188 3.95425 152.023 3.95425Z" fill="#043E44"/>
<path fill-rule="evenodd" clip-rule="evenodd" d="M32.3937 4.13719C32.3937 4.13719 32.3937 3.88576 32.1102 3.84004C31.9684 3.81719 31.8976 3.81718 31.7558 3.81718C31.6849 3.81718 31.614 3.81718 31.5431 3.81718C30.4562 3.88576 29.7947 4.38862 29.4166 4.77719C29.1094 5.0972 28.6841 5.69149 28.566 6.56008H28.5187V4.16005C28.5187 4.0229 28.4006 3.90861 28.2588 3.90861H26.6521C26.0142 3.90861 25.518 4.41147 25.518 5.00577V14.3316C25.518 14.9488 26.0142 15.4288 26.6521 15.4288H28.7078C28.8495 15.4288 28.9677 15.3145 28.9677 15.1773V10.1944C28.9677 8.98296 29.1331 7.90866 30.2672 7.22294C30.7161 6.94865 31.2596 6.83436 31.8503 6.83436C31.9212 6.83436 31.9921 6.83436 32.0393 6.83436C32.441 6.90293 32.3937 6.4915 32.3937 6.4915V4.13719Z" fill="#043E44"/>
<path fill-rule="evenodd" clip-rule="evenodd" d="M66.6548 4.13719C66.6548 4.13719 66.6548 3.88576 66.3713 3.84004C66.2295 3.81719 66.1586 3.81718 66.0169 3.81718C65.946 3.81718 65.8751 3.81718 65.8042 3.81718C64.7173 3.88576 64.0557 4.38862 63.6777 4.77719C63.3705 5.0972 62.9452 5.69149 62.8271 6.56008H62.7798V4.16005C62.7798 4.0229 62.6617 3.90861 62.5199 3.90861H60.9132C60.2752 3.90861 59.779 4.41147 59.779 5.00577V14.3316C59.779 14.9488 60.2752 15.4288 60.9132 15.4288H62.9688C63.1106 15.4288 63.2287 15.3145 63.2287 15.1773V10.1944C63.2287 8.98296 63.3941 7.90866 64.5283 7.22294C64.9772 6.94865 65.5207 6.83436 66.1114 6.83436C66.1823 6.83436 66.2532 6.83436 66.3004 6.83436C66.7021 6.90293 66.6548 6.4915 66.6548 6.4915V4.13719Z" fill="#043E44"/>
<path fill-rule="evenodd" clip-rule="evenodd" d="M139.926 4.13719C139.926 4.13719 139.926 3.88576 139.643 3.84004C139.501 3.81719 139.43 3.81718 139.288 3.81718C139.217 3.81718 139.146 3.81718 139.075 3.81718C137.989 3.88576 137.327 4.38862 136.949 4.77719C136.642 5.0972 136.216 5.69149 136.098 6.56008H136.051V4.27433C136.051 4.13719 135.933 4.0229 135.791 4.0229H133.287C133.145 4.0229 133.027 4.13719 133.027 4.27433V15.223C133.027 15.3602 133.145 15.4745 133.287 15.4745H136.216C136.358 15.4745 136.476 15.3602 136.476 15.223V10.2401C136.476 9.02868 136.642 7.95438 137.776 7.26866C138.225 6.99437 138.768 6.88008 139.335 6.88008C139.406 6.88008 139.477 6.88008 139.524 6.88008C139.926 6.94865 139.926 6.53722 139.926 6.53722V4.13719Z" fill="#043E44"/>
<path fill-rule="evenodd" clip-rule="evenodd" d="M101.554 4.04577H97.7734V0.411438C97.7734 0.274293 97.8443 0 97.4899 0H95.387C94.8199 0.0457149 94.3946 0.434291 94.3946 0.914298V4.04577H90.6613C90.4251 4.04577 90.4251 4.18292 90.4487 4.2972C90.7795 5.3715 91.6065 6.40009 92.7879 6.4458H93.9693C94.1583 6.46866 94.3237 6.6058 94.3946 6.78866V12.1373C94.3946 12.1373 94.3946 13.1202 94.5836 13.7373C94.6781 14.0573 94.8908 14.3773 95.1743 14.6516C95.9304 15.4288 97.0882 15.6116 97.9625 15.6116C98.6241 15.6116 99.5219 15.5431 100.278 15.4516C100.42 15.4288 100.514 15.3145 100.514 15.2002V13.2573C100.514 13.0973 100.373 12.983 100.207 13.0059C99.8763 13.0516 99.4983 13.0745 99.2384 13.0745C98.8603 13.0745 98.4823 13.0287 98.1751 12.7316C97.7971 12.343 97.7971 11.863 97.7971 11.4516V9.09727H97.8207V6.92581C97.8207 6.67438 98.0333 6.46866 98.2933 6.4458H99.4747C100.656 6.40009 101.459 5.3715 101.814 4.2972C101.814 4.18292 101.79 4.04577 101.554 4.04577Z" fill="#043E44"/>
<path d="M44.785 15.3973C44.785 13.3578 42.7178 12.638 41.188 12.678H33.9527C33.9527 14.6774 36.0199 15.3973 37.5497 15.3973H44.785Z" fill="#043E44"/>
<path d="M41.188 4.00032C42.7178 4.00032 44.785 4.68013 44.785 6.71958H37.5497C36.0199 6.71958 33.9527 6.03977 33.9527 4.00032H41.188Z" fill="#043E44"/>
<path d="M41.188 8.31916C42.7178 8.31916 44.785 9.03897 44.785 11.0384H37.5497C36.0199 11.0384 33.9527 10.3586 33.9527 8.31916H41.188Z" fill="#043E44"/>
<path d="M69.9629 26.2405C68.5985 26.2405 67.6889 25.1608 67.6889 23.8811C67.6889 22.6414 68.6398 21.5217 69.9629 21.5217C71.2859 21.5217 72.2368 22.6414 72.2368 23.8811C72.2368 25.1608 71.3272 26.2405 69.9629 26.2405ZM69.9629 22.6414C69.26 22.6414 68.9706 23.3212 68.9706 23.8811C68.9706 24.4809 69.3013 25.1208 69.9629 25.1208C70.6244 25.1208 70.9551 24.4809 70.9551 23.8811C70.9551 23.2813 70.6657 22.6414 69.9629 22.6414Z" fill="#043E44"/>
<path d="M76.2882 26.2405C75.9161 26.2405 75.668 25.9605 75.668 25.5606V24.321H74.0143V25.5606C74.0143 25.9605 73.7662 26.2405 73.3941 26.2405C73.022 26.2405 72.774 25.9605 72.774 25.5606V22.2016C72.774 21.8017 73.022 21.5217 73.3941 21.5217C73.7662 21.5217 74.0143 21.8017 74.0143 22.2016V23.2413H75.668V22.2016C75.668 21.8017 75.9161 21.5217 76.2882 21.5217C76.6603 21.5217 76.9083 21.8017 76.9083 22.2016V25.5606C76.9083 25.9605 76.6603 26.2405 76.2882 26.2405Z" fill="#043E44"/>
<path d="M81.1671 26.2406C80.795 26.2406 80.5469 25.9607 80.5469 25.5608V22.6816H79.4719V24.0013C79.4719 25.4809 78.8104 26.2406 77.8595 26.2406C77.4874 26.2406 77.322 25.9607 77.322 25.6808C77.322 25.4409 77.4461 25.2409 77.6941 25.1609C77.9422 25.0809 78.2316 24.841 78.2316 24.1212V22.2817C78.2316 21.8818 78.4797 21.6019 78.8518 21.6019H81.2084C81.5805 21.6019 81.8286 21.8818 81.8286 22.2817V25.5608C81.8286 25.9607 81.5392 26.2406 81.1671 26.2406Z" fill="#043E44"/>
<path d="M85.9206 26.2406C85.6312 26.2406 85.4245 26.1206 85.3418 25.7207C85.1351 26.0806 84.5976 26.2406 84.1429 26.2406C83.1093 26.2406 82.4064 25.7207 82.4064 24.761C82.4064 23.3613 84.1015 23.1614 85.3005 23.1614V22.8415C85.3005 22.6015 85.0937 22.5216 84.763 22.5216C84.0188 22.5216 83.8948 22.9215 83.564 22.9215C83.1506 22.9215 83.0266 22.6415 83.0266 22.4016C83.0266 21.8817 84.0602 21.4818 84.8043 21.4818C85.9619 21.4818 86.6235 21.9617 86.6235 22.8415V25.5607C86.4994 25.9606 86.2927 26.2406 85.9206 26.2406ZM85.3005 24.0811C84.5563 24.0811 83.564 24.0012 83.564 24.761C83.564 25.1209 83.9361 25.2008 84.3082 25.2008C84.9697 25.2008 85.2591 24.8809 85.2591 24.2811V24.0811H85.3005Z" fill="#043E44"/>
<path d="M90.7177 26.2406C90.3456 26.2406 90.0975 25.9606 90.0975 25.5608V23.7213L88.3611 25.9606C88.2371 26.1206 88.0717 26.2406 87.8236 26.2406C87.4515 26.2406 87.2035 25.9606 87.2035 25.5608V22.2017C87.2035 21.8018 87.4515 21.5219 87.8236 21.5219C88.1957 21.5219 88.4438 21.8018 88.4438 22.2017V24.0012L90.0562 21.8817C90.2216 21.6418 90.4696 21.5219 90.6764 21.5219C91.0484 21.5219 91.2965 21.8018 91.2965 22.2017V25.5608C91.3792 25.9606 91.0898 26.2406 90.7177 26.2406ZM87.9063 20.4022C87.9063 20.1622 88.0717 20.0023 88.3198 20.0023C88.8572 20.0023 88.6919 20.5621 89.2707 20.5621C89.7668 20.5621 89.6841 20.0023 90.2216 20.0023C90.4696 20.0023 90.635 20.2022 90.635 20.4022C90.635 21.002 89.9735 21.3619 89.2707 21.3619C88.5678 21.3619 87.9063 21.002 87.9063 20.4022Z" fill="#043E44"/>
<path d="M95.5961 26.2405C95.224 26.2405 94.9759 25.9605 94.9759 25.5606V24.321H93.3221V25.5606C93.3221 25.9605 93.0741 26.2405 92.702 26.2405C92.3299 26.2405 92.0818 25.9605 92.0818 25.5606V22.2016C92.0818 21.8017 92.3299 21.5217 92.702 21.5217C93.0741 21.5217 93.3221 21.8017 93.3221 22.2016V23.2413H94.9759V22.2016C94.9759 21.8017 95.224 21.5217 95.5961 21.5217C95.9682 21.5217 96.2162 21.8017 96.2162 22.2016V25.5606C96.2576 25.9605 96.0095 26.2405 95.5961 26.2405Z" fill="#043E44"/>
<path d="M99.2348 24.2012H97.3744C97.0436 24.2012 96.8782 23.9613 96.8782 23.6813C96.8782 23.3614 97.0436 23.1215 97.3744 23.1215H99.2348C99.5656 23.1215 99.7309 23.3614 99.7309 23.6813C99.7309 23.9613 99.5656 24.2012 99.2348 24.2012Z" fill="#043E44"/>
<path d="M102.459 26.2405C101.095 26.2405 100.185 25.1608 100.185 23.8811C100.185 22.6414 101.136 21.5217 102.459 21.5217C102.955 21.5217 103.989 21.7217 103.989 22.2815C103.989 22.5215 103.824 22.8814 103.493 22.8814C103.162 22.8814 102.873 22.6414 102.501 22.6414C101.798 22.6414 101.426 23.2413 101.426 23.8811C101.426 24.4809 101.798 25.1208 102.501 25.1208C102.831 25.1208 103.286 24.8808 103.451 24.8808C103.741 24.8808 103.989 25.1208 103.989 25.4007C104.03 26.0405 102.914 26.2405 102.459 26.2405Z" fill="#043E44"/>
<path d="M108.29 22.3615L106.182 27.5201C106.058 27.8 105.892 28 105.603 28C105.189 28 104.941 27.7201 104.941 27.4801C104.941 27.3602 104.983 27.2402 105.024 27.1202L105.561 25.8006L104.156 22.3615C104.114 22.2815 104.114 22.1616 104.114 22.0416C104.114 21.7217 104.445 21.5217 104.693 21.5217C104.983 21.5217 105.231 21.6817 105.313 21.9616L106.182 24.321L107.133 21.9616C107.257 21.6817 107.463 21.5217 107.753 21.5217C108.001 21.5217 108.332 21.7617 108.332 22.0416C108.332 22.1616 108.332 22.2415 108.29 22.3615Z" fill="#043E44"/>
<path d="M112.218 26.2406C111.846 26.2406 111.598 25.9607 111.598 25.5608V22.6816H109.944V25.5608C109.944 25.9607 109.696 26.2406 109.324 26.2406C108.952 26.2406 108.703 25.9607 108.703 25.5608V22.2817C108.703 21.8818 108.952 21.6019 109.324 21.6019H112.218C112.59 21.6019 112.838 21.8818 112.838 22.2817V25.5608C112.838 25.9607 112.59 26.2406 112.218 26.2406Z" fill="#043E44"/>
<path d="M117.261 24.281H114.573C114.656 24.8808 115.152 25.1608 115.772 25.1608C116.434 25.1608 116.888 24.6809 117.219 24.6809C117.509 24.6809 117.757 24.9608 117.757 25.2008C117.757 25.7206 116.64 26.2405 115.689 26.2405C114.284 26.2405 113.333 25.2407 113.333 23.8811C113.333 22.6414 114.284 21.5217 115.607 21.5217C116.971 21.5217 117.881 22.7214 117.881 23.7611C117.839 24.081 117.674 24.281 117.261 24.281ZM115.565 22.5215C114.987 22.5215 114.614 22.9214 114.573 23.4412H116.599C116.475 22.9214 116.144 22.5215 115.565 22.5215Z" fill="#043E44"/>
<path d="M120.692 26.2405C120.279 26.2405 119.865 26.0806 119.535 25.8007V27.2803C119.535 27.6801 119.287 27.9601 118.914 27.9601C118.542 27.9601 118.294 27.6801 118.294 27.2803V22.1616C118.294 21.7618 118.542 21.4818 118.914 21.4818C119.245 21.4818 119.452 21.7218 119.535 22.0417C119.783 21.6818 120.238 21.4818 120.734 21.4818C122.098 21.4818 122.76 22.7215 122.76 23.9212C122.801 25.0809 121.974 26.2405 120.692 26.2405ZM120.527 22.6415C119.865 22.6415 119.535 23.2814 119.535 23.8412C119.535 24.441 119.824 25.1209 120.527 25.1209C121.188 25.1209 121.519 24.481 121.519 23.8812C121.519 23.2813 121.188 22.6415 120.527 22.6415Z" fill="#043E44"/>
<path d="M128.507 26.2405C128.094 26.2405 127.887 26.0005 127.845 25.6806L127.515 23.4012L126.812 25.8006C126.77 25.9606 126.605 26.2405 126.15 26.2405C125.696 26.2405 125.53 26.0005 125.489 25.8006L124.786 23.4012L124.455 25.6806C124.414 25.9605 124.207 26.2405 123.794 26.2405C123.463 26.2405 123.215 26.0005 123.215 25.6406C123.215 25.6006 123.215 25.5607 123.215 25.5207L123.835 22.0416C123.876 21.8017 124.207 21.5217 124.621 21.5217C125.034 21.5217 125.323 21.8017 125.406 22.0416L126.15 24.321L126.853 22.0416C126.936 21.8017 127.225 21.5217 127.639 21.5217C128.093 21.5217 128.383 21.8017 128.424 22.0416L129.044 25.5207C129.044 25.5607 129.044 25.6006 129.044 25.6406C129.086 25.9605 128.838 26.2405 128.507 26.2405Z" fill="#043E44"/>
<path d="M133.055 26.2406C132.765 26.2406 132.558 26.1206 132.476 25.7207C132.269 26.0806 131.732 26.2406 131.277 26.2406C130.243 26.2406 129.54 25.7207 129.54 24.761C129.54 23.3613 131.235 23.1614 132.434 23.1614V22.8415C132.434 22.6015 132.228 22.5216 131.897 22.5216C131.153 22.5216 131.029 22.9215 130.698 22.9215C130.285 22.9215 130.16 22.6415 130.16 22.4016C130.16 21.8817 131.194 21.4818 131.938 21.4818C133.096 21.4818 133.757 21.9617 133.757 22.8415V25.5607C133.633 25.9606 133.427 26.2406 133.055 26.2406ZM132.434 24.0811C131.69 24.0811 130.698 24.0012 130.698 24.761C130.698 25.1209 131.07 25.2008 131.442 25.2008C132.104 25.2008 132.393 24.8809 132.393 24.2811V24.0811H132.434Z" fill="#043E44"/>
<path d="M136.734 26.2405C136.321 26.2405 135.907 26.0806 135.576 25.8007V27.2803C135.576 27.6801 135.328 27.9601 134.956 27.9601C134.584 27.9601 134.336 27.6801 134.336 27.2803V22.1616C134.336 21.7618 134.584 21.4818 134.956 21.4818C135.287 21.4818 135.494 21.7218 135.576 22.0417C135.824 21.6818 136.279 21.4818 136.775 21.4818C138.14 21.4818 138.801 22.7215 138.801 23.9212C138.843 25.0809 138.016 26.2405 136.734 26.2405ZM136.569 22.6415C135.907 22.6415 135.576 23.2814 135.576 23.8412C135.576 24.441 135.866 25.1209 136.569 25.1209C137.23 25.1209 137.561 24.481 137.561 23.8812C137.561 23.2813 137.23 22.6415 136.569 22.6415Z" fill="#043E44"/>
<path d="M142.853 26.2406C142.605 26.2406 142.439 26.0806 142.233 25.8806L140.661 24.2411V25.5607C140.661 25.9606 140.413 26.2406 140.041 26.2406C139.669 26.2406 139.421 25.9606 139.421 25.5607V22.2017C139.421 21.8018 139.669 21.5218 140.041 21.5218C140.413 21.5218 140.661 21.8018 140.661 22.2017V23.3613L142.108 21.7618C142.274 21.6018 142.522 21.4818 142.687 21.4818C143.018 21.4818 143.225 21.7618 143.225 22.0417C143.225 22.2016 143.142 22.3616 142.977 22.5216L141.736 23.7212L143.307 25.2008C143.431 25.3208 143.473 25.4808 143.473 25.6007C143.432 26.0006 143.183 26.2406 142.853 26.2406Z" fill="#043E44"/>
<path d="M147.525 24.281H144.838C144.92 24.8808 145.417 25.1608 146.037 25.1608C146.698 25.1608 147.153 24.6809 147.484 24.6809C147.773 24.6809 148.021 24.9608 148.021 25.2008C148.021 25.7206 146.905 26.2405 145.954 26.2405C144.548 26.2405 143.597 25.2407 143.597 23.8811C143.597 22.6414 144.548 21.5217 145.871 21.5217C147.236 21.5217 148.145 22.7214 148.145 23.7611C148.063 24.081 147.897 24.281 147.525 24.281ZM145.789 22.5215C145.21 22.5215 144.838 22.9214 144.796 23.4412H146.822C146.74 22.9214 146.409 22.5215 145.789 22.5215Z" fill="#043E44"/>
<path d="M151.742 22.6817H150.873V25.5609C150.873 25.9608 150.625 26.2407 150.253 26.2407C149.881 26.2407 149.633 25.9608 149.633 25.5609V22.6817H148.765C148.434 22.6817 148.227 22.4817 148.227 22.1618C148.227 21.8419 148.475 21.642 148.765 21.642H151.824C152.155 21.642 152.444 21.7619 152.444 22.1618C152.362 22.5217 152.072 22.6817 151.742 22.6817Z" fill="#043E44"/>
</svg>
